<svg id="visual" viewBox="0 0 900 600" width="900" height="600" xmlns="http://www.w3.org/2000/svg" xmlns:xlink="http://www.w3.org/1999/xlink" version="1.1"><path d="M0 67L4.8 62.2C9.7 57.3 19.3 47.7 29 49.5C38.7 51.3 48.3 64.7 58 67.8C67.7 71 77.3 64 87 62.5C96.7 61 106.3 65 116 63.5C125.7 62 135.3 55 145 51.7C154.7 48.3 164.3 48.7 174 53.3C183.7 58 193.3 67 203 66.8C212.7 66.7 222.3 57.3 232 54.8C241.7 52.3 251.3 56.7 261 56.7C270.7 56.7 280.3 52.3 290 49.2C299.7 46 309.3 44 319 42.5C328.7 41 338.3 40 348 38.8C357.7 37.7 367.3 36.3 377 40.3C386.7 44.3 396.3 53.7 406 55.5C415.7 57.3 425.3 51.7 435.2 53.2C445 54.7 455 63.3 464.8 64.2C474.7 65 484.3 58 494 52.2C503.7 46.3 513.3 41.7 523 44C532.7 46.3 542.3 55.7 552 63.2C561.7 70.7 571.3 76.3 581 76.2C590.7 76 600.3 70 610 69.8C619.7 69.7 629.3 75.3 639 77C648.7 78.7 658.3 76.3 668 72.3C677.7 68.3 687.3 62.7 697 57.2C706.7 51.7 716.3 46.3 726 46.2C735.7 46 745.3 51 755 56.5C764.7 62 774.3 68 784 65.7C793.7 63.3 803.3 52.7 813 46.7C822.7 40.7 832.3 39.3 842 42C851.7 44.7 861.3 51.3 871 54C880.7 56.7 890.3 55.3 895.2 54.7L900 54L900 0L895.2 0C890.3 0 880.7 0 871 0C861.3 0 851.7 0 842 0C832.3 0 822.7 0 813 0C803.3 0 793.7 0 784 0C774.3 0 764.7 0 755 0C745.3 0 735.7 0 726 0C716.3 0 706.7 0 697 0C687.3 0 677.7 0 668 0C658.3 0 648.7 0 639 0C629.3 0 619.7 0 610 0C600.3 0 590.7 0 581 0C571.3 0 561.7 0 552 0C542.3 0 532.7 0 523 0C513.3 0 503.7 0 494 0C484.3 0 474.7 0 464.8 0C455 0 445 0 435.2 0C425.3 0 415.7 0 406 0C396.3 0 386.7 0 377 0C367.3 0 357.7 0 348 0C338.3 0 328.7 0 319 0C309.3 0 299.7 0 290 0C280.3 0 270.7 0 261 0C251.3 0 241.7 0 232 0C222.3 0 212.7 0 203 0C193.3 0 183.7 0 174 0C164.3 0 154.7 0 145 0C135.3 0 125.7 0 116 0C106.3 0 96.7 0 87 0C77.3 0 67.7 0 58 0C48.3 0 38.7 0 29 0C19.3 0 9.7 0 4.8 0L0 0Z" fill="#6600FF" stroke-linecap="round" stroke-linejoin="miter"></path></svg>