<svg id="visual" viewBox="0 0 900 600" width="900" height="600" xmlns="http://www.w3.org/2000/svg" xmlns:xlink="http://www.w3.org/1999/xlink" version="1.1"><path d="M0 269L4.8 274.3C9.7 279.7 19.3 290.3 29 313.5C38.7 336.7 48.3 372.3 58 373.5C67.7 374.7 77.3 341.3 87 339C96.7 336.7 106.3 365.3 116 387.8C125.7 410.3 135.3 426.7 145 434.5C154.7 442.3 164.3 441.7 174 437.8C183.7 434 193.3 427 203 415.7C212.7 404.3 222.3 388.7 232 394.2C241.7 399.7 251.3 426.3 261 423.5C270.7 420.7 280.3 388.3 290 386.2C299.7 384 309.3 412 319 414.5C328.7 417 338.3 394 348 367.7C357.7 341.3 367.3 311.7 377 300.8C386.7 290 396.3 298 406 313.8C415.7 329.7 425.3 353.3 435.2 360.5C445 367.7 455 358.3 464.8 368.2C474.7 378 484.3 407 494 399.2C503.7 391.3 513.3 346.7 523 341.3C532.7 336 542.3 370 552 371.2C561.7 372.3 571.3 340.7 581 330.8C590.7 321 600.3 333 610 346.8C619.7 360.7 629.3 376.3 639 388.3C648.7 400.3 658.3 408.7 668 388.2C677.7 367.7 687.3 318.3 697 298.2C706.7 278 716.3 287 726 302.8C735.7 318.7 745.3 341.3 755 359C764.7 376.7 774.3 389.3 784 398C793.7 406.7 803.3 411.3 813 388.5C822.7 365.7 832.3 315.3 842 299.5C851.7 283.7 861.3 302.3 871 329.3C880.7 356.3 890.3 391.7 895.2 409.3L900 427L900 601L895.2 601C890.3 601 880.7 601 871 601C861.3 601 851.7 601 842 601C832.3 601 822.7 601 813 601C803.3 601 793.7 601 784 601C774.3 601 764.7 601 755 601C745.3 601 735.7 601 726 601C716.3 601 706.7 601 697 601C687.3 601 677.7 601 668 601C658.3 601 648.7 601 639 601C629.3 601 619.7 601 610 601C600.3 601 590.7 601 581 601C571.3 601 561.7 601 552 601C542.3 601 532.7 601 523 601C513.3 601 503.7 601 494 601C484.3 601 474.7 601 464.8 601C455 601 445 601 435.2 601C425.3 601 415.7 601 406 601C396.3 601 386.7 601 377 601C367.3 601 357.7 601 348 601C338.3 601 328.7 601 319 601C309.3 601 299.7 601 290 601C280.3 601 270.7 601 261 601C251.3 601 241.7 601 232 601C222.3 601 212.7 601 203 601C193.3 601 183.7 601 174 601C164.3 601 154.7 601 145 601C135.3 601 125.7 601 116 601C106.3 601 96.7 601 87 601C77.3 601 67.7 601 58 601C48.3 601 38.7 601 29 601C19.3 601 9.7 601 4.8 601L0 601Z" fill="#6600FF" stroke-linecap="round" stroke-linejoin="miter"></path></svg>